<?xml version="1.0" standalone="no"?>
<!DOCTYPE svg PUBLIC "-//W3C//DTD SVG 20010904//EN"
 "http://www.w3.org/TR/2001/REC-SVG-20010904/DTD/svg10.dtd">
<svg version="1.0" xmlns="http://www.w3.org/2000/svg"
 width="512.000000pt" height="512.000000pt" viewBox="0 0 512.000000 512.000000"
 preserveAspectRatio="xMidYMid meet">

<g transform="translate(0.000000,512.000000) scale(0.100000,-0.100000)"
fill="#000000" stroke="none">
<path d="M2406 5030 c-160 -26 -319 -89 -452 -181 -275 -191 -441 -489 -462
-831 l-7 -118 -235 137 c-231 135 -236 137 -296 138 -77 0 -131 -33 -163 -97
-20 -43 -21 -58 -21 -383 l0 -338 -41 -54 c-86 -115 -191 -306 -235 -429 l-18
-51 -133 -5 c-118 -5 -139 -8 -187 -32 -59 -29 -94 -64 -129 -130 -22 -40 -22
-48 -22 -436 l0 -395 30 -54 c29 -52 81 -100 135 -124 14 -6 87 -13 164 -17
l138 -5 24 -63 c109 -292 356 -617 602 -795 l42 -30 0 -249 c0 -227 2 -252 19
-287 26 -50 81 -97 128 -110 50 -14 447 -14 497 0 62 17 111 72 175 197 l57
113 460 0 459 0 62 -118 c67 -128 109 -176 170 -192 21 -6 133 -11 259 -11
216 0 221 1 271 25 59 30 97 79 112 145 6 25 11 144 11 266 l0 220 108 90
c245 206 436 480 546 784 40 112 83 296 91 395 11 124 -5 112 152 117 123 3
144 7 195 30 215 100 274 380 116 553 -57 63 -123 101 -201 116 -65 12 -98 5
-131 -28 -38 -37 -36 -95 3 -134 19 -18 40 -29 58 -29 39 0 112 -39 137 -73
29 -39 29 -125 0 -163 -45 -61 -66 -69 -194 -72 l-119 -4 -5 34 c-3 18 -10 74
-16 123 -65 528 -401 1032 -875 1313 l-60 35 -1 156 c-1 134 -5 170 -27 253
-100 379 -399 678 -772 774 -112 28 -315 40 -419 24z m387 -224 c148 -44 255
-105 366 -210 260 -248 339 -613 205 -956 -41 -105 -42 -106 -105 -75 -80 41
-214 91 -309 115 -47 12 -86 23 -87 24 -2 2 4 24 13 50 24 68 15 159 -22 226
-53 97 -146 156 -268 169 -82 9 -105 19 -135 57 -55 69 9 164 110 164 71 0
118 -42 133 -120 13 -70 83 -107 143 -76 111 57 36 282 -120 359 -44 21 -56
32 -60 56 -21 105 -173 105 -194 0 -4 -23 -16 -35 -48 -50 -63 -30 -117 -80
-150 -140 -27 -48 -30 -63 -30 -139 0 -69 5 -93 23 -128 53 -100 156 -167 273
-178 107 -11 159 -49 159 -118 0 -35 -45 -84 -91 -97 -77 -24 -169 33 -169
103 0 21 -10 40 -35 65 -32 32 -39 35 -78 30 -80 -11 -108 -84 -72 -187 8 -24
14 -45 12 -46 -2 -2 -48 -15 -103 -29 -80 -21 -183 -60 -340 -131 -7 -3 -23
18 -37 48 -112 237 -114 503 -7 735 50 107 88 163 169 246 127 132 282 216
466 253 106 21 278 12 388 -20z m-1577 -981 c190 -111 240 -135 272 -135 37 0
39 -2 51 -42 7 -24 31 -83 54 -132 l41 -89 -39 -30 c-22 -18 -69 -59 -105 -93
-59 -57 -65 -66 -65 -104 0 -35 6 -47 34 -72 49 -44 95 -36 164 29 188 176
419 294 687 349 117 25 381 25 503 1 252 -51 483 -166 669 -335 38 -34 79 -64
93 -68 74 -18 139 48 120 123 -7 28 -72 94 -157 160 -27 21 -48 40 -48 44 0 3
19 48 43 98 l43 93 95 -63 c138 -92 333 -291 432 -439 125 -189 211 -399 253
-620 28 -145 26 -428 -4 -578 -84 -419 -303 -763 -649 -1019 -40 -29 -74 -55
-75 -56 -1 -1 -5 -128 -8 -282 l-5 -280 -196 -3 -195 -2 -80 152 c-95 183
-105 191 -219 177 -91 -10 -809 -10 -900 0 -114 14 -125 6 -218 -177 l-78
-152 -195 0 -194 0 0 263 c0 190 -4 269 -13 287 -7 13 -48 51 -92 84 -44 32
-132 111 -195 175 -173 174 -294 365 -374 590 -18 52 -43 104 -54 116 -29 30
-61 35 -228 35 -142 0 -143 0 -163 26 -19 24 -21 40 -21 145 l0 119 86 0 c84
0 87 1 120 34 36 36 42 67 22 111 -18 41 -57 55 -148 55 l-80 0 0 119 c0 112
2 122 24 148 l24 28 170 3 c164 3 171 4 194 27 13 13 32 49 42 80 49 157 147
343 246 470 26 34 52 70 59 82 7 15 11 123 11 352 0 182 3 331 6 331 4 0 111
-61 240 -135z"/>
<path d="M1194 2910 c-31 -12 -54 -49 -54 -88 0 -44 14 -68 52 -88 66 -34 143
12 143 88 0 70 -73 116 -141 88z"/>
</g>
</svg>
