<?xml version="1.0" standalone="no"?>
<!DOCTYPE svg PUBLIC "-//W3C//DTD SVG 20010904//EN"
 "http://www.w3.org/TR/2001/REC-SVG-20010904/DTD/svg10.dtd">
<svg version="1.0" xmlns="http://www.w3.org/2000/svg"
 width="512.000000pt" height="512.000000pt" viewBox="0 0 512.000000 512.000000"
 preserveAspectRatio="xMidYMid meet">

<g transform="translate(0.000000,512.000000) scale(0.100000,-0.100000)"
fill="#000000" stroke="none">
<path d="M788 4959 l-218 -160 0 -2229 0 -2229 213 -154 c116 -84 218 -157
224 -161 8 -4 72 26 155 73 79 44 150 83 159 86 10 4 73 -28 168 -85 l151 -91
151 90 c82 50 152 91 155 91 3 0 73 -40 156 -90 83 -49 153 -88 157 -86 3 2
72 43 153 91 l148 88 154 -92 153 -92 151 91 c82 49 152 90 155 90 3 0 73 -41
156 -90 l152 -91 150 91 c83 49 154 90 158 90 5 0 73 -36 151 -81 79 -44 149
-83 155 -86 7 -2 112 68 234 157 l221 161 0 2229 0 2229 -221 161 c-122 89
-227 159 -234 157 -6 -3 -76 -42 -155 -86 -78 -45 -146 -81 -151 -81 -4 0 -71
38 -149 85 -78 47 -149 85 -158 85 -9 0 -82 -38 -161 -85 -79 -47 -146 -85
-148 -85 -3 0 -68 38 -147 85 -78 47 -149 85 -159 85 -9 0 -82 -39 -162 -86
l-145 -86 -144 86 c-80 47 -153 86 -162 86 -10 0 -82 -38 -160 -85 -79 -47
-145 -85 -148 -85 -3 0 -68 38 -146 85 -78 47 -149 85 -159 85 -10 0 -82 -38
-161 -85 -88 -53 -150 -83 -159 -80 -9 3 -80 42 -157 86 -78 43 -146 79 -150
78 -5 0 -107 -73 -226 -160z m986 -258 c72 -43 141 -84 154 -90 20 -11 38 -2
173 79 l151 91 155 -92 154 -91 153 91 153 92 152 -91 c84 -49 154 -90 156
-90 2 0 72 41 154 90 l151 91 132 -79 c73 -43 143 -84 155 -90 18 -10 40 -1
169 72 l148 84 83 -61 83 -61 0 -2076 0 -2076 -83 -61 -83 -61 -149 84 c-127
71 -151 81 -169 72 -12 -6 -81 -47 -154 -90 l-132 -79 -133 79 c-72 44 -142
85 -154 91 -20 10 -40 1 -174 -79 l-152 -91 -153 92 -154 91 -154 -91 -153
-92 -151 91 c-136 81 -154 90 -174 79 -13 -6 -83 -47 -156 -91 l-132 -79 -151
91 -152 91 -150 -84 -151 -84 -83 60 -83 61 0 2076 0 2076 83 61 83 60 151
-84 150 -84 149 90 c82 50 151 90 153 91 1 0 62 -35 135 -79z"/>
<path d="M1170 4140 l0 -150 1390 0 1390 0 0 150 0 150 -1390 0 -1390 0 0
-150z"/>
<path d="M1170 3540 l0 -150 1390 0 1390 0 0 150 0 150 -1390 0 -1390 0 0
-150z"/>
<path d="M3140 2942 l0 -148 -70 -11 c-200 -31 -349 -179 -382 -377 -29 -175
67 -371 224 -458 84 -47 155 -58 368 -58 173 0 198 -2 235 -20 110 -53 111
-212 1 -264 -29 -14 -80 -16 -360 -16 l-326 0 0 -150 0 -150 155 0 155 0 0
-150 0 -150 150 0 150 0 0 148 0 147 76 13 c195 31 343 179 376 376 39 233
-132 468 -368 506 -33 6 -142 10 -242 10 -149 0 -191 3 -218 16 -105 50 -110
200 -9 260 l42 24 326 0 327 0 0 150 0 150 -155 0 -155 0 0 150 0 150 -150 0
-150 0 0 -148z"/>
<path d="M1170 2640 l0 -150 605 0 605 0 0 150 0 150 -605 0 -605 0 0 -150z"/>
<path d="M1170 2040 l0 -150 605 0 605 0 0 150 0 150 -605 0 -605 0 0 -150z"/>
<path d="M1170 1440 l0 -150 605 0 605 0 0 150 0 150 -605 0 -605 0 0 -150z"/>
</g>
</svg>
