<?xml version="1.0" standalone="no"?>
<!DOCTYPE svg PUBLIC "-//W3C//DTD SVG 20010904//EN"
 "http://www.w3.org/TR/2001/REC-SVG-20010904/DTD/svg10.dtd">
<svg version="1.0" xmlns="http://www.w3.org/2000/svg"
 width="512.000000pt" height="512.000000pt" viewBox="0 0 512.000000 512.000000"
 preserveAspectRatio="xMidYMid meet">

<g transform="translate(0.000000,512.000000) scale(0.100000,-0.100000)"
fill="#000000" stroke="none">
<path d="M2321 5110 c-868 -84 -1644 -610 -2037 -1382 -139 -273 -221 -536
-266 -853 -20 -140 -17 -504 6 -660 39 -278 121 -541 247 -794 249 -502 647
-900 1150 -1150 815 -406 1779 -350 2539 147 297 194 579 482 771 788 74 116
184 342 234 478 51 138 110 376 131 531 23 157 26 521 6 660 -43 299 -120 554
-246 810 -378 768 -1090 1285 -1941 1411 -122 18 -466 26 -594 14z m444 -980
c257 -80 431 -301 443 -561 5 -112 -21 -369 -49 -479 -67 -260 -260 -469 -489
-526 -292 -74 -617 168 -709 526 -28 113 -54 368 -49 485 8 153 58 269 164
380 90 95 234 171 369 195 81 15 241 5 320 -20z m-574 -1694 c142 -74 232 -98
369 -98 123 0 229 24 324 74 34 17 83 43 111 57 41 21 64 26 125 26 71 0 82
-4 200 -59 69 -32 176 -78 238 -102 151 -59 167 -68 235 -132 68 -65 110 -135
132 -217 18 -70 21 -451 4 -524 -27 -118 -122 -243 -226 -299 -102 -54 -369
-124 -620 -162 -295 -45 -633 -50 -928 -15 -262 31 -623 116 -730 173 -106 57
-199 176 -231 297 -20 74 -19 451 1 530 21 80 63 150 127 211 69 66 94 80 268
149 80 32 177 73 215 93 103 52 142 62 214 58 54 -3 80 -13 172 -60z"/>
</g>
</svg>
