<?xml version="1.0" standalone="no"?>
<!DOCTYPE svg PUBLIC "-//W3C//DTD SVG 20010904//EN"
 "http://www.w3.org/TR/2001/REC-SVG-20010904/DTD/svg10.dtd">
<svg version="1.0" xmlns="http://www.w3.org/2000/svg"
 width="512.000000pt" height="512.000000pt" viewBox="0 0 512.000000 512.000000"
 preserveAspectRatio="xMidYMid meet">

<g transform="translate(0.000000,512.000000) scale(0.100000,-0.100000)"
fill="#000000" stroke="none">
<path d="M1885 4915 c-20 -19 -25 -34 -25 -75 l0 -50 -462 0 c-444 0 -465 -1
-508 -21 -55 -25 -105 -71 -133 -124 l-22 -40 -3 -2105 -2 -2105 30 -62 c35
-71 88 -116 164 -138 75 -22 3197 -22 3272 0 76 22 129 67 164 138 l30 62 -2
2105 -3 2105 -22 40 c-28 53 -78 99 -133 124 -43 20 -64 21 -507 21 l-463 0 0
50 c0 41 -5 56 -25 75 l-24 25 -651 0 -651 0 -24 -25z m1235 -335 l0 -220
-560 0 -560 0 0 220 0 220 560 0 560 0 0 -220z m-1260 -75 l0 -144 -324 -3
c-302 -3 -325 -4 -345 -22 l-21 -19 0 -1829 c0 -1815 0 -1828 20 -1848 20 -20
33 -20 1370 -20 1337 0 1350 0 1370 20 20 20 20 33 20 1848 l0 1829 -21 19
c-20 18 -43 19 -345 22 l-324 3 0 144 0 145 455 0 455 0 38 -34 37 -34 3
-2084 c2 -2024 1 -2084 -17 -2114 -42 -69 83 -64 -1671 -64 -1754 0 -1629 -5
-1671 64 -18 30 -19 90 -17 2114 l3 2084 37 34 38 34 455 0 455 0 0 -145z
m1950 -2015 l0 -1730 -1250 0 -1250 0 0 1730 0 1730 1250 0 1250 0 0 -1730z"/>
<path d="M2201 4637 c-37 -19 -48 -63 -24 -96 l20 -26 363 0 363 0 20 26 c15
22 17 33 10 55 -17 52 -30 54 -393 54 -246 0 -341 -4 -359 -13z"/>
<path d="M2028 3753 l-157 -157 -79 77 c-64 62 -86 77 -110 77 -34 0 -72 -38
-72 -73 0 -12 44 -64 112 -134 95 -96 117 -113 143 -113 27 0 56 25 223 193
135 135 192 200 192 216 0 29 -43 71 -72 71 -16 0 -68 -45 -180 -157z"/>
<path d="M2542 3887 c-28 -30 -28 -71 0 -97 21 -20 33 -20 470 -20 l449 0 24
25 c14 13 25 33 25 45 0 12 -11 32 -25 45 l-24 25 -449 0 -449 0 -21 -23z"/>
<path d="M2570 3563 c-51 -19 -66 -77 -30 -113 19 -19 33 -20 263 -20 224 0
245 2 260 18 26 29 22 77 -9 101 -25 20 -39 21 -248 20 -121 0 -228 -3 -236
-6z"/>
<path d="M2020 2965 l-156 -155 -74 75 c-60 61 -80 75 -105 75 -16 0 -35 -4
-41 -8 -20 -13 -36 -53 -30 -76 3 -12 54 -70 114 -129 88 -86 115 -107 138
-107 24 0 60 32 221 193 156 156 193 198 193 220 0 37 -33 67 -72 67 -27 0
-52 -20 -188 -155z"/>
<path d="M2540 3100 c-29 -29 -26 -74 7 -100 26 -20 32 -21 476 -18 l449 3 19
24 c24 30 24 52 -2 85 l-20 26 -455 0 c-441 0 -455 -1 -474 -20z"/>
<path d="M2542 2757 c-27 -29 -28 -71 -2 -97 19 -19 33 -20 260 -20 227 0 241
1 260 20 11 11 20 33 20 50 0 17 -9 39 -20 50 -19 19 -33 20 -258 20 -236 0
-239 0 -260 -23z"/>
<path d="M2185 2330 c-11 -5 -87 -76 -170 -159 l-149 -150 -82 79 c-51 50 -90
80 -103 80 -28 0 -71 -43 -71 -71 0 -24 209 -244 241 -254 32 -11 72 21 252
202 187 189 198 207 160 251 -22 25 -51 33 -78 22z"/>
<path d="M2570 2333 c-51 -19 -66 -77 -30 -113 19 -19 33 -20 474 -20 400 0
456 2 470 16 38 37 27 96 -20 114 -27 10 -867 13 -894 3z"/>
<path d="M2540 1970 c-29 -29 -26 -74 6 -99 25 -20 39 -21 254 -21 215 0 229
1 254 21 19 15 26 30 26 54 0 62 -14 65 -282 65 -225 0 -239 -1 -258 -20z"/>
<path d="M2028 1393 l-157 -157 -79 77 c-89 86 -115 95 -157 52 -42 -41 -34
-59 87 -182 95 -96 117 -113 143 -113 27 0 56 25 223 193 135 135 192 200 192
216 0 29 -43 71 -72 71 -16 0 -68 -45 -180 -157z"/>
<path d="M2542 1527 c-28 -30 -28 -71 0 -97 21 -20 33 -20 470 -20 l449 0 24
25 c14 13 25 33 25 45 0 12 -11 32 -25 45 l-24 25 -449 0 -449 0 -21 -23z"/>
<path d="M2570 1203 c-49 -19 -64 -68 -34 -111 15 -22 18 -22 263 -22 227 0
249 2 264 18 24 26 21 75 -4 98 -19 17 -40 19 -248 21 -124 1 -233 -1 -241 -4z"/>
</g>
</svg>
